Coordinates
version=1
nRows=5
nColumns=40
inDegrees=yes

Units are S.I. units (second, meters, Newtons, ...)
If the header above contains a line with 'inDegrees', this indicates whether rotational values are in degrees (yes) or radians (no).

endheader
time	pelvis_tilt	pelvis_list	pelvis_rotation	pelvis_tx	pelvis_ty	pelvis_tz	hip_flexion_r	hip_adduction_r	hip_rotation_r	knee_angle_r	knee_angle_r_beta	ankle_angle_r	subtalar_angle_r	mtp_angle_r	hip_flexion_l	hip_adduction_l	hip_rotation_l	knee_angle_l	knee_angle_l_beta	ankle_angle_l	subtalar_angle_l	mtp_angle_l	lumbar_extension	lumbar_bending	lumbar_rotation	arm_flex_r	arm_add_r	arm_rot_r	elbow_flex_r	pro_sup_r	wrist_flex_r	wrist_dev_r	arm_flex_l	arm_add_l	arm_rot_l	elbow_flex_l	pro_sup_l	wrist_flex_l	wrist_dev_l
     10.69999999999999928946	     -2.34844369191788127083	      1.75842284151517835866	   -175.44173133672771314195	      0.24028159569561050035	      0.76490584711409426166	     -0.92168603161342854690	     32.88273289226130913221	    -42.15093252026439074598	    -26.48751391012439881933	     50.40889339746511410567	      0.87980116207259684291	     -0.59558543726250756656	      0.00000000000000000000	      0.00000000000000000000	     41.22948301504919754734	    -43.89294916123506595795	    -16.12060820935777982754	     52.21585930597060354330	      0.91133866664730822649	     -4.40498551578735053624	      0.00000000000000000000	      0.00000000000000000000	    -56.35032934867195564266	      6.09002746483728341076	     -6.26483087439607810865	     42.98913287574598740548	      1.13927587605457469877	     24.00229685808148261117	      5.72935507435492130668	     22.43971289770764343530	      0.00000000000000000000	      0.00000000000000000000	     46.24853602200815316792	     -9.24415665168684341779	     67.71881133682219910952	      6.36311354848854637822	     74.59550502235731528344	      0.00000000000000000000	      0.00000000000000000000
     10.70500000000000007105	     -2.20480781766982847358	      2.02875870921503054234	   -175.28217098111250038528	      0.24056761742647336799	      0.76687895497366331821	     -0.92111125438616259231	     32.31203002239647048555	    -41.84875502352775100690	    -27.32785013507860227833	     49.72539307909131878205	      0.86787183107854459774	     -1.05752307334372352976	      0.00000000000000000000	      0.00000000000000000000	     41.38001882417712806728	    -43.76879528217234138765	    -15.72786260679213299341	     51.71858101190954926096	      0.90265952311724229062	     -4.76803172353657078730	      0.00000000000000000000	      0.00000000000000000000	    -56.05184677119411418289	      6.48326406829344659144	     -6.20970884133728784349	     42.98175756868939600963	      1.09293123285238502618	     23.86854266687964454263	      5.80489754755781905970	     23.06529995427329282620	      0.00000000000000000000	      0.00000000000000000000	     46.06433675636973390510	     -8.97490635604241404621	     66.64061841622074666702	      6.08155705319611783466	     73.43660403992791430028	      0.00000000000000000000	      0.00000000000000000000
     10.71000000000000085265	     -1.90631024055821196583	      1.84642995167187473626	   -175.54122603780717781774	      0.24073554720921844230	      0.76851614584136795916	     -0.92142659345057487119	     32.66474563211062331902	    -41.73471781096841937142	    -27.02809827517977936395	     49.28323508660456298003	      0.86015471829564238426	     -1.28099446792582738475	      0.00000000000000000000	      0.00000000000000000000	     40.93535564427340034399	    -43.56747055315427985533	    -16.36694042488866074336	     51.20240283636310607562	      0.89365051442701959328	     -4.77963191649984597831	      0.00000000000000000000	      0.00000000000000000000	    -55.53804779576666561525	      6.14948729201198407424	     -6.24151610677684764994	     42.68015774215876945163	      1.07641266080621966772	     24.23778105726054121760	      6.05179413269573185374	     20.99575628336819121955	      0.00000000000000000000	      0.00000000000000000000	     45.97681150212287803924	     -9.13657019706207051968	     67.74509683650951785694	      6.22646684974792563594	     76.16131617416981214319	      0.00000000000000000000	      0.00000000000000000000
     10.71499999999999985789	     -1.65216048741564769387	      1.94151753892661571577	   -175.59693977846160350964	      0.24096607870468189638	      0.77034986065986221782	     -0.92131250279280152427	     32.54983874382198649755	    -41.45945808023913059515	    -27.34077397765517503103	     48.65523252981336810308	      0.84919400596869332176	     -1.78407690531333651407	      0.00000000000000000000	      0.00000000000000000000	     40.83027917636780301791	    -43.41960999440397728222	    -16.41770698028212649433	     50.64834582261644158052	      0.88398039529337280040	     -4.95151446665500483135	      0.00000000000000000000	      0.00000000000000000000	    -55.10054894039453898813	      6.22080478481509491218	     -6.16590128077627230851	     42.63753164365238035316	      1.01662388017674754082	     24.24857757142802583417	      6.06050354253529910409	     20.30337009066209574826	      0.00000000000000000000	      0.00000000000000000000	     45.80599659702475889844	     -9.09111096386000205882	     67.50779938164754412355	      6.28756127615147075716	     76.05322164613862412352	      0.00000000000000000000	      0.00000000000000000000
     10.72000000000000063949	     -1.44679681452983088796	      1.97671030028890459818	   -175.61813272322638113110	      0.24116169474322793342	      0.77221356148318320844	     -0.92120934569825607685	     32.41329068775044675021	    -41.26150571223396923415	    -27.62506424477241750992	     48.09734595864770767548	      0.83945704844919089016	     -2.15014681978288368924	      0.00000000000000000000	      0.00000000000000000000	     40.66714355177856532464	    -43.23729882863348450428	    -16.53343661367498285131	     50.11182716822323612860	      0.87461637827584182148	     -5.16215471119965485514	      0.00000000000000000000	      0.00000000000000000000	    -54.69739726511412669652	      6.26415367650920895670	     -6.18228965014843367953	     42.57550651236744698735	      1.09447138496552431874	     24.08691067519891859661	      6.17188107806618369011	     18.96246432618482558041	      0.00000000000000000000	      0.00000000000000000000	     45.64829829396863658530	     -9.04472569518832258950	     67.42608794383897929947	      6.24254986229775710171	     76.05905071498996505852	      0.00000000000000000000	      0.00000000000000000000
